<svg width="30" height="30" viewBox="0 0 30 30" fill="none" xmlns="http://www.w3.org/2000/svg">
<path d="M2.62015 8.08696C4.3794 9.817 6.05081 11.4593 7.84737 13.2261C6.32156 14.1296 7.08687 15.0972 7.77396 16.0921C9.66558 18.83 11.9988 21.115 14.817 22.9293C15.7339 23.5186 16.5919 24.0498 17.2429 22.8024C18.9769 24.5419 20.6495 26.2198 22.4244 27.9996C21.7084 29.1486 20.3354 29.4415 18.8361 29.2293C15.5931 28.7704 12.8712 27.1447 10.3082 25.264C6.23011 22.2723 3.28799 18.4067 1.59492 13.6779C0.892181 11.7166 0.643094 9.73162 2.62015 8.08696Z" fill="#D6E9F2"/>
<path d="M18.3789 21.798C19.7326 20.2613 19.7362 20.2601 21.108 21.6095C21.9431 22.4312 22.777 23.2542 23.6121 24.0771C25.0838 25.5273 25.0838 25.5273 23.5604 26.8542C21.8553 25.1905 20.1538 23.5304 18.3789 21.798Z" fill="#D6E9F2"/>
<path d="M8.65113 12.2988C6.9364 10.5771 5.29025 8.92412 3.63208 7.25929C4.71266 5.6585 4.90519 5.63953 6.34196 7.05297C7.20835 7.90554 8.07474 8.75692 8.93872 9.61186C10.2768 10.934 10.2732 10.9696 8.65113 12.2988Z" fill="#D6E9F2"/>
<path d="M22.694 3.17313C21.0491 4.73597 19.3813 6.31898 17.7171 7.90554C17.6545 7.96483 17.6268 8.0585 17.5318 8.23044C17.7905 8.57906 18.0757 8.96325 18.4511 9.46957C16.7881 9.46957 15.213 9.46957 13.5464 9.46957C13.5464 7.91977 13.5464 6.37945 13.5464 4.70158C14.0181 5.02411 14.4344 5.3087 14.8761 5.60989C16.6233 3.85969 18.3344 2.14743 20.0058 0.474312C20.9492 1.42174 21.7266 2.20198 22.694 3.17313Z" fill="#D6E9F2"/>
<path d="M19.5618 13.781C21.2067 12.2182 22.8745 10.6352 24.5387 9.04862C24.6013 8.98933 24.6289 8.89566 24.724 8.72372C24.4653 8.3751 24.1801 7.99091 23.8047 7.48459C25.4677 7.48459 27.0428 7.48459 28.7094 7.48459C28.7094 9.03439 28.7094 10.5747 28.7094 12.2526C28.2377 11.93 27.8214 11.6455 27.3797 11.3443C25.6325 13.0933 23.9214 14.8055 22.2488 16.4787C21.3066 15.5324 20.5292 14.7522 19.5618 13.781Z" fill="#D6E9F2"/>
</svg>
