<svg width="28" height="30" viewBox="0 0 28 30" fill="none" xmlns="http://www.w3.org/2000/svg">
<g clip-path="url(#clip0_106_76)">
<path d="M8.26145 19.8386C9.93448 20.1101 11.5483 19.9204 13.1365 19.3548C13.3259 19.2872 13.3607 19.2125 13.2782 19.0358C13.1783 18.8236 13.0935 18.603 13.0029 18.3848C12.9111 18.1631 12.8216 17.9414 12.7322 17.7208C9.57083 19.0216 5.67407 18.0884 3.36436 15.105C1.01398 12.0694 1.13133 7.68801 3.36087 4.80777C5.65548 1.84334 9.77764 0.672989 13.3328 2.44453C15.0337 3.29117 16.3524 4.55402 17.1366 6.31489C18.7249 9.8805 18.0556 13.0939 15.5368 15.9422C16.0155 16.0738 16.4651 16.1592 16.8834 16.3263C17.1889 16.4485 17.34 16.3465 17.5096 16.1188C19.2024 13.8398 19.9111 11.2939 19.48 8.45164C19.1071 5.99473 17.979 3.94927 16.1282 2.34374C14.684 1.08919 13.0284 0.28287 11.1172 0.0895897C11.1091 0.088404 11.0905 0.088404 11.0615 0.0872182C9.29896 -0.125035 8.14527 0.116862 8.14527 0.116862L8.14179 0.118048C6.37813 0.407376 4.80502 1.139 3.47125 2.34848C0.510913 5.03307 -0.587012 8.39947 0.297138 12.3267C1.18942 16.2931 4.39374 19.2101 8.26145 19.8386Z" fill="#D6E9F2"/>
<path d="M24.4049 19.3951C21.3493 18.5924 18.2937 17.7908 15.2381 16.988C14.7107 16.8493 14.1844 16.7094 13.6081 16.5576C13.6569 16.6714 13.6848 16.739 13.715 16.8066C14.1971 17.8596 14.6851 18.9101 15.1603 19.9667C15.3322 20.3485 15.3067 20.3639 14.9488 20.5418C12.9005 21.558 10.7233 21.7145 8.5193 21.4335C6.50818 21.1773 4.62486 20.4647 2.88096 19.3928C2.80195 19.3441 2.71249 19.3109 2.62884 19.2706C2.61838 19.286 2.60909 19.3003 2.59863 19.3157C2.74967 19.5433 2.90652 19.7675 3.05174 19.9987C3.97307 21.4655 4.99664 22.8481 6.25025 24.0398C8.09407 25.7924 10.1958 27.0398 12.7263 27.4145C13.3548 27.507 13.9961 27.6007 14.6259 27.5698C15.8144 27.5117 16.9867 27.309 18.1044 26.8607C18.2798 26.7896 18.3716 26.8275 18.4564 27.0208C18.834 27.8841 19.2313 28.739 19.6275 29.5939C19.6961 29.7422 19.7995 29.8738 19.9145 30.0564C20.0365 29.773 20.1201 29.5667 20.2142 29.3651C21.6816 26.2038 23.149 23.0437 24.6176 19.8837C24.7802 19.5362 24.7593 19.4888 24.4049 19.3951Z" fill="#D6E9F2"/>
<path d="M10.7106 14.0817C11.259 13.9797 11.7737 13.771 12.1757 13.3596C12.781 12.7394 13.0354 12.0161 12.7368 11.1505C12.4231 10.2433 11.7295 9.75006 10.8895 9.45244C10.4643 9.30184 10.0089 9.24018 9.56621 9.14058C9.10729 9.03742 8.65999 8.90105 8.36721 8.49196C8.29053 8.38524 8.21733 8.20026 8.25684 8.09473C8.38115 7.7556 8.5775 7.47101 8.98298 7.41884C9.72538 7.32161 10.3783 7.47457 10.9174 8.04255C11.0278 8.15876 11.2021 8.25481 11.3566 8.27259C11.6912 8.31054 12.0328 8.28564 12.3697 8.29987C12.6114 8.31054 12.688 8.205 12.6834 7.96548C12.6706 7.32516 12.6799 6.68366 12.6776 6.04334C12.6776 5.97813 12.6602 5.91291 12.6485 5.82872C12.3255 5.82872 12.0177 5.82753 11.7109 5.82872C11.4379 5.82991 11.1207 5.7552 11.1184 6.19512C10.4411 6.03386 10.4353 6.02674 10.426 5.37694C10.4248 5.32714 10.4411 5.26785 10.419 5.23109C10.3865 5.17417 10.3284 5.09354 10.2807 5.09236C9.83924 5.0805 9.39543 5.08524 8.94812 5.08524C8.91908 5.36746 8.96787 5.64611 8.85401 5.79196C8.73435 5.94374 8.45899 5.96746 8.25103 6.04927C8.18829 6.07417 8.12555 6.09908 8.06397 6.12872C6.45833 6.88287 6.37468 9.01726 7.62132 9.92674C7.83161 10.0809 8.05119 10.2469 8.29285 10.3263C8.85982 10.5125 9.4419 10.6548 10.0205 10.803C10.4271 10.9074 10.8256 11.0177 11.1207 11.3509C11.2962 11.5489 11.3903 11.8121 11.2741 12.0315C11.1765 12.2153 10.9499 12.4192 10.7606 12.443C9.9624 12.539 9.17119 12.5283 8.56937 11.8311C8.48339 11.7315 8.3219 11.6592 8.19061 11.652C7.80489 11.6295 7.418 11.6509 7.03111 11.6461C6.858 11.6437 6.82547 11.7339 6.82663 11.888C6.83128 12.5188 6.82779 13.1509 6.83011 13.7817C6.83011 13.8469 6.84406 13.9133 6.85451 14.007C7.18563 14.007 7.50281 14.0094 7.81999 14.007C8.08605 14.0046 8.38928 14.0722 8.42995 13.6714C8.80754 13.7746 8.98646 13.9726 8.92256 14.3568C8.89816 14.5062 8.91908 14.6639 8.91908 14.8109C9.43841 14.8109 9.91708 14.8109 10.4236 14.8109C10.4236 14.6841 10.4353 14.5762 10.4213 14.473C10.3888 14.2346 10.462 14.1279 10.7106 14.0817Z" fill="#D6E9F2"/>
</g>
<defs>
<clipPath id="clip0_106_76">
<rect width="28" height="30" fill="white"/>
</clipPath>
</defs>
</svg>
