<svg width="34" height="32" viewBox="0 0 34 32" fill="none" xmlns="http://www.w3.org/2000/svg">
<path d="M13.9225 5.6438C10.4688 6.78942 7.92522 9.85163 7.62378 13.5299H12.3546C12.3943 12.2237 12.5368 11.0348 12.7214 10.0065C13.0427 8.22202 13.5113 6.73362 13.9225 5.6438Z" fill="#D6E9F2"/>
<path d="M13.8618 13.531H20.7284C20.6022 9.81858 19.5717 6.85773 18.942 5.37388C18.2947 5.23495 17.6228 5.15979 16.9323 5.15979C16.5176 5.15979 16.1098 5.18826 15.7102 5.23951C15.2721 6.24506 14.6014 8.03296 14.196 10.314C14.0301 11.2557 13.9004 12.3399 13.8618 13.531Z" fill="#D6E9F2"/>
<path d="M22.2426 13.531H26.2432C25.9674 10.1614 23.8106 7.3087 20.7961 5.9729C21.1759 7.02514 21.586 8.39511 21.8757 10.0076C22.0603 11.036 22.2029 12.2249 22.2426 13.531Z" fill="#D6E9F2"/>
<path d="M7.62378 15.0001C7.9299 18.7297 10.5401 21.8238 14.0651 22.9318C12.8944 20.1133 12.434 17.4007 12.3557 15.0001H7.62378Z" fill="#D6E9F2"/>
<path d="M20.6582 22.6152C23.7427 21.3056 25.9615 18.4199 26.2419 15.0001H22.2402C22.1654 17.3096 21.7355 19.9094 20.6582 22.6152Z" fill="#D6E9F2"/>
<path d="M13.864 15.0001C13.9516 17.4998 14.4809 20.3593 15.876 23.311C16.223 23.3486 16.5758 23.3714 16.9334 23.3714C17.5643 23.3714 18.18 23.3099 18.7759 23.1926C20.1137 20.3183 20.6465 17.5214 20.7294 15.0001H13.864Z" fill="#D6E9F2"/>
<path d="M27.1311 16.9462H27.6464C27.4746 16.9462 27.3075 16.9291 27.144 16.8995C27.1393 16.9155 27.1358 16.9314 27.1311 16.9462Z" fill="#D6E9F2"/>
<path d="M29.7774 10.544H28.1043C26.5129 6.01959 22.1093 2.75696 16.9345 2.75696C11.7597 2.75696 7.35493 6.01959 5.76476 10.544H4.22249C2.70476 10.544 1.47095 11.7477 1.47095 13.2259V14.2644C1.47095 15.7437 2.70593 16.9463 4.22249 16.9463H5.4528H5.586H6.73452C6.49734 16.0911 6.36882 15.1914 6.36882 14.2644C6.36882 8.58642 11.1078 3.96749 16.9334 3.96749C21.4597 3.96749 25.3282 6.75639 26.8296 10.6636C26.9745 11.0394 27.096 11.4266 27.1941 11.8217C27.3904 12.6052 27.4967 13.4217 27.4967 14.2633C27.4967 14.7553 27.4593 15.2381 27.3904 15.7118C27.3308 16.115 27.249 16.5113 27.1427 16.8985C27.3063 16.9281 27.4734 16.9451 27.6451 16.9451H28.4116H28.8883V25.1649C28.8883 25.9757 28.2118 26.6362 27.3787 26.6362H20.0693C19.8975 25.5601 18.943 24.7322 17.7909 24.7322H14.9506C13.6782 24.7322 12.643 25.7412 12.643 26.9813C12.643 28.2214 13.6782 29.2304 14.9506 29.2304H17.7909C18.749 29.2304 19.5727 28.6576 19.9209 27.8456H27.3787C28.8964 27.8456 30.1303 26.6419 30.1303 25.1638V16.919C31.4797 16.7481 32.5266 15.623 32.5266 14.261V13.2224C32.529 11.7466 31.294 10.544 29.7774 10.544ZM4.22249 15.7357C3.3906 15.7357 2.71294 15.0764 2.71294 14.2644V13.2259C2.71294 12.415 3.38944 11.7545 4.22249 11.7545H5.41191C5.22614 12.5631 5.12565 13.4024 5.12565 14.2633C5.12565 14.7621 5.16071 15.2529 5.22497 15.7346H4.22249V15.7357ZM17.7921 28.0222H14.9518C14.3641 28.0222 13.8862 27.5564 13.8862 26.9836C13.8862 26.4108 14.3641 25.945 14.9518 25.945H17.7921C18.3798 25.945 18.8577 26.4108 18.8577 26.9836C18.8577 27.5564 18.3798 28.0222 17.7921 28.0222ZM31.2858 14.2644C31.2858 15.0753 30.6093 15.7357 29.7762 15.7357H28.6406C28.7048 15.254 28.7399 14.7632 28.7399 14.2644C28.7399 13.4024 28.6394 12.5631 28.4536 11.7557H29.7762C30.6081 11.7557 31.2858 12.415 31.2858 13.227V14.2644Z" fill="#D6E9F2"/>
</svg>
