<svg width="34" height="32" viewBox="0 0 34 32" fill="none" xmlns="http://www.w3.org/2000/svg">
<path d="M21.5134 18.3994C23.3887 16.574 25.2768 14.7348 27.1602 12.9014C27.9512 13.678 28.7562 14.4683 29.5437 15.2427C27.6802 17.0591 25.7909 18.9005 23.9086 20.7339C23.1246 19.9698 22.3161 19.1818 21.5134 18.3994Z" fill="#D6E9F2"/>
<path d="M20.3391 1.60683C20.602 1.64555 20.8544 1.66832 21.0997 1.72184C21.5461 1.81978 21.9386 2.03046 22.2623 2.34249C23.1117 3.159 23.9553 3.9812 24.7942 4.81024C25.2884 5.29878 25.4952 5.90576 25.5233 6.58106C25.5268 6.68014 25.4777 6.68697 25.4017 6.68697C24.9729 6.68583 24.5453 6.68697 24.1165 6.68697C22.9084 6.68697 21.7003 6.68583 20.4922 6.68925C20.3812 6.68925 20.3286 6.67216 20.3286 6.54576C20.3321 4.93209 20.3309 3.31843 20.3321 1.70476C20.3309 1.6854 20.3345 1.66604 20.3391 1.60683Z" fill="#D6E9F2"/>
<path d="M28.4011 11.6065C28.4525 11.5712 28.5226 11.5348 28.5764 11.4824C28.9152 11.1567 29.2529 10.8276 29.5882 10.4974C30.1666 9.92683 30.9681 9.83573 31.6224 10.1273C32.5617 10.5441 32.9088 11.7421 32.2767 12.5586C31.8654 13.0904 31.3513 13.5459 30.8886 14.0276C30.0556 13.2145 29.2459 12.4276 28.4011 11.6065Z" fill="#D6E9F2"/>
<path d="M20.4326 19.84C21.1021 20.4914 21.7646 21.1348 22.4422 21.793C22.2308 21.8659 22.0263 21.9399 21.8195 22.0071C21.2867 22.1791 20.7563 22.3579 20.2188 22.5127C19.8589 22.6152 19.5867 22.3442 19.6977 21.9957C19.9244 21.2863 20.1697 20.5825 20.4081 19.8764C20.4128 19.8639 20.4244 19.8537 20.4326 19.84Z" fill="#D6E9F2"/>
<path d="M25.5607 21.8727C25.5607 21.809 25.5607 21.7441 25.5607 21.6359C25.264 21.9183 24.9976 22.1666 24.7359 22.4216C24.2685 22.8772 23.724 23.2051 23.0908 23.401C22.3266 23.6379 21.5719 23.9066 20.8066 24.1378C19.9443 24.3986 19.1615 24.238 18.5224 23.606C17.8856 22.9774 17.7688 22.2155 18.0387 21.3922C18.2595 20.7146 18.4897 20.0382 18.7327 19.3685C18.853 19.0394 18.9897 18.7115 19.1627 18.4063C19.4279 17.9382 19.8333 17.5784 20.22 17.2037C21.9679 15.5115 23.71 13.8112 25.4486 12.1088C25.5117 12.0473 25.5561 11.9379 25.5561 11.8503C25.5631 10.7331 25.5607 9.61709 25.5607 8.49993C25.5607 8.46007 25.5549 8.41908 25.5526 8.37353C25.5023 8.37353 25.4638 8.37353 25.4264 8.37353C23.4436 8.37353 21.4597 8.37467 19.477 8.3758C18.9804 8.3758 18.6299 8.03986 18.6299 7.55815C18.6299 5.63474 18.6299 3.71132 18.6299 1.78676C18.6299 1.7321 18.6299 1.67858 18.6299 1.61595C18.5481 1.61595 18.4862 1.61595 18.4242 1.61595C14.4003 1.61595 10.3752 1.61481 6.35132 1.61709C6.05338 1.61709 5.75427 1.62506 5.4575 1.64783C4.63028 1.71274 3.97949 2.08513 3.50163 2.74563C3.12541 3.26378 3.0331 3.85708 3.0331 4.47089C3.03193 11.9824 3.03193 19.4938 3.0331 27.0064C3.0331 27.3537 3.04128 27.7011 3.06231 28.0461C3.11372 28.8433 3.47943 29.4776 4.13489 29.9525C4.67001 30.3408 5.28925 30.4456 5.93537 30.4467C11.3462 30.4478 16.757 30.4478 22.1677 30.4467C22.4797 30.4467 22.794 30.4421 23.1048 30.4171C24.0395 30.3396 24.7429 29.8989 25.2161 29.1075C25.5117 28.6144 25.5584 28.0666 25.5607 27.5166C25.5654 25.6353 25.5607 23.754 25.5607 21.8727ZM7.15283 10.0817C7.21358 10.068 7.27668 10.0658 7.3386 10.0658C11.3824 10.0646 15.4262 10.068 19.4699 10.0612C19.9116 10.0601 20.3007 10.4325 20.3509 10.8572C20.3965 11.2421 20.081 11.6475 19.6721 11.7352C19.5938 11.7523 19.5097 11.7535 19.429 11.7535C17.4218 11.7546 15.4145 11.7546 13.406 11.7546C11.3835 11.7546 9.36224 11.7546 7.33977 11.7535C6.91448 11.7535 6.54527 11.4426 6.49736 11.0497C6.44011 10.5703 6.70183 10.1808 7.15283 10.0817ZM7.15516 13.4594C7.21592 13.4468 7.27901 13.4434 7.34094 13.4434C10.2292 13.4423 13.1174 13.4468 16.0068 13.4389C16.4765 13.4377 16.8738 13.8625 16.8866 14.2793C16.9018 14.7394 16.5022 15.13 16.0185 15.1311C14.5697 15.1334 13.1209 15.1322 11.671 15.1322C10.2268 15.1322 8.78272 15.1334 7.3386 15.1322C6.91448 15.1322 6.5441 14.8191 6.49853 14.4262C6.44245 13.9445 6.70417 13.5573 7.15516 13.4594ZM7.16217 16.8359C7.22293 16.8233 7.28602 16.8222 7.34795 16.8222C10.2315 16.8211 13.1151 16.8256 15.9987 16.8177C16.4812 16.8165 16.8785 17.2527 16.8855 17.6661C16.8937 18.1284 16.4976 18.5099 16.0092 18.511C14.5604 18.5133 13.1116 18.5122 11.6616 18.5122C10.2222 18.5122 8.78272 18.5122 7.34327 18.5122C6.91097 18.5122 6.53592 18.1956 6.4962 17.7993C6.44829 17.3119 6.71118 16.9304 7.16217 16.8359ZM7.3351 21.8898C6.91448 21.8898 6.53242 21.5641 6.49736 21.1804C6.4518 20.6827 6.71819 20.3001 7.17269 20.2113C7.21943 20.2021 7.2685 20.201 7.3164 20.1999C10.2187 20.1999 13.1209 20.1987 16.0244 20.1999C16.549 20.1999 16.9988 20.7362 16.8633 21.2191C16.764 21.5732 16.4929 21.8967 15.9706 21.8932C14.5359 21.8841 13.1022 21.8898 11.6675 21.8898C10.2233 21.891 8.77922 21.891 7.3351 21.8898ZM19.6452 26.9472C19.5751 26.9597 19.5015 26.9586 19.429 26.9586C18.5726 26.9597 17.715 26.9586 16.8586 26.9586C15.9963 26.9586 15.1352 26.9586 14.273 26.9586C13.7589 26.9586 13.3862 26.5964 13.3897 26.0999C13.3932 25.6239 13.7694 25.2675 14.2706 25.2675C16.008 25.2675 17.7466 25.2663 19.484 25.2675C19.9139 25.2675 20.31 25.633 20.3509 26.0601C20.3918 26.4632 20.067 26.8709 19.6452 26.9472Z" fill="#D6E9F2"/>
</svg>
