<svg width="32" height="30" viewBox="0 0 32 30" fill="none" xmlns="http://www.w3.org/2000/svg">
<path d="M13.1179 19.0388H3.58719C2.9175 19.0388 2.36987 18.5071 2.36987 17.8569V2.27188C2.36987 1.6217 2.9175 1.09003 3.58719 1.09003H13.1168C13.7865 1.09003 14.3341 1.6217 14.3341 2.27188V17.8569C14.3341 18.5071 13.7865 19.0388 13.1179 19.0388Z" fill="#D6E9F2"/>
<path d="M13.12 29.0754H3.59037C2.92068 29.0754 2.37305 28.5438 2.37305 27.8936V22.3441C2.37305 21.6939 2.92068 21.1623 3.59037 21.1623H13.12C13.7897 21.1623 14.3373 21.6939 14.3373 22.3441V27.8936C14.3373 28.5427 13.7897 29.0754 13.12 29.0754Z" fill="#D6E9F2"/>
<path d="M28.181 11.1256H18.6514C17.9817 11.1256 17.4341 11.6573 17.4341 12.3075V27.8925C17.4341 28.5427 17.9817 29.0744 18.6514 29.0744H28.181C28.8507 29.0744 29.3983 28.5427 29.3983 27.8925V12.3075C29.3972 11.6573 28.8496 11.1256 28.181 11.1256Z" fill="#D6E9F2"/>
<path d="M28.1832 1.09003H18.6536C17.9839 1.09003 17.4363 1.6217 17.4363 2.27188V7.82134C17.4363 8.47152 17.9839 9.00319 18.6536 9.00319H28.1832C28.8529 9.00319 29.4005 8.47152 29.4005 7.82134V2.27188C29.4005 1.6217 28.8529 1.09003 28.1832 1.09003Z" fill="#D6E9F2"/>
</svg>
