<svg width="30" height="30" viewBox="0 0 30 30" fill="none" xmlns="http://www.w3.org/2000/svg">
<path d="M14.871 10.3164C14.8947 10.4263 14.9153 10.5363 14.9328 10.6484C15.6235 11.0295 16.4122 11.2463 17.2503 11.2463C18.307 11.2463 19.2844 10.9014 20.0875 10.3164C21.3576 9.39074 22.1875 7.86298 22.1875 6.13344C22.1875 3.3096 19.9772 1.02063 17.2503 1.02063C14.5235 1.02063 12.3132 3.3096 12.3132 6.13344C12.3132 6.30853 12.3215 6.48148 12.338 6.6523C13.604 7.45728 14.5369 8.77045 14.871 10.3164Z" fill="#D6E9F2"/>
<path d="M6.59072 15.7612C7.39382 16.3463 8.37113 16.6911 9.42784 16.6911C9.7567 16.6911 10.0784 16.6569 10.3897 16.5929C11.0773 16.452 11.7124 16.1637 12.265 15.7612C13.5351 14.8356 14.365 13.3078 14.365 11.5783C14.365 11.4032 14.3567 11.2303 14.3402 11.0594C14.3258 10.911 14.3041 10.7648 14.2773 10.6206C14.2588 10.5182 14.2381 10.4167 14.2134 10.3164C14.1969 10.2502 14.1794 10.184 14.1598 10.1189C13.8701 9.11104 13.2897 8.23346 12.5186 7.59182C12.3887 7.48399 12.2536 7.38257 12.1134 7.28862C11.9938 7.20854 11.8722 7.13274 11.7454 7.06335C11.0546 6.68221 10.266 6.46548 9.42784 6.46548C6.70103 6.46548 4.49072 8.75445 4.49072 11.5783C4.49072 13.3078 5.32165 14.8356 6.59072 15.7612Z" fill="#D6E9F2"/>
<path d="M22.9545 19.121C23.5514 18.9011 23.9824 18.3117 23.9824 17.621V11.9103C23.9824 11.0338 23.2896 10.3164 22.4432 10.3164H21.0906C20.0896 11.3028 18.737 11.9103 17.2494 11.9103C16.4494 11.9103 15.6896 11.7342 15.0009 11.4181C15.0019 11.4715 15.005 11.5238 15.005 11.5783C15.005 13.0249 14.4875 14.3487 13.6349 15.363H14.6205C14.8267 15.363 15.0236 15.4003 15.2102 15.4633C15.1514 15.584 15.103 15.7078 15.0638 15.8327C14.9226 15.7879 14.7751 15.7623 14.6205 15.7623H13.2679C12.4875 16.531 11.4937 17.068 10.3885 17.2687C10.3246 17.2804 10.2607 17.29 10.1958 17.2996C10.1318 17.3092 10.0679 17.3167 10.003 17.3242C9.81329 17.3445 9.6205 17.3573 9.42566 17.3573C7.93803 17.3573 6.58545 16.7498 5.58442 15.7633H4.10607C3.25968 15.7633 2.56689 16.4808 2.56689 17.3573V23.068C2.56689 23.9445 3.25968 24.6619 4.10607 24.6619H14.6215C14.7318 24.6619 14.838 24.6459 14.9422 24.6224V26.5879C14.9422 28.0153 16.0638 29.1779 17.4432 29.1779C18.8215 29.1779 19.9442 28.0164 19.9442 26.5879V24.1975H22.2525C23.6308 24.1975 24.7535 23.0359 24.7535 21.6075C24.7525 20.4299 23.9916 19.4359 22.9545 19.121ZM22.2514 23.3968H19.1741V26.5836C19.1741 27.5722 18.3978 28.3761 17.4432 28.3761C16.4885 28.3761 15.7123 27.5722 15.7123 26.5836V23.3968H12.6349C11.6803 23.3968 10.904 22.5929 10.904 21.6043C10.904 20.6156 11.6803 19.8117 12.6349 19.8117H15.7123V16.6249C15.7123 16.4519 15.737 16.2779 15.7865 16.1092C15.8164 16.0068 15.8566 15.9032 15.9071 15.8039C16.2071 15.2039 16.7958 14.8324 17.4442 14.8324C18.3989 14.8324 19.1751 15.6363 19.1751 16.6249V19.8117H22.2525C23.2071 19.8117 23.9834 20.6156 23.9834 21.6043C23.9824 22.5929 23.2061 23.3968 22.2514 23.3968Z" fill="#D6E9F2"/>
</svg>
