<svg width="32" height="30" viewBox="0 0 32 30" fill="none" xmlns="http://www.w3.org/2000/svg">
<path d="M27.8056 16.7639C27.8056 16.9595 27.8056 17.0994 27.8056 17.2392C27.8056 20.6673 27.7723 24.0964 27.8205 27.5245C27.8423 29.0742 26.7107 30.0566 25.3097 29.9975C23.9316 29.9395 22.5489 29.985 21.1674 29.985C20.4119 29.985 20.1734 29.7462 20.1722 28.9867C20.1711 27.1254 20.1734 25.2641 20.1711 23.4017C20.17 21.8065 19.2883 20.9401 17.6717 20.9401C16.5058 20.9401 15.3386 20.9379 14.1727 20.9401C12.7762 20.9424 11.843 21.8554 11.8361 23.2403C11.8281 25.1493 11.8338 27.0572 11.8338 28.9662C11.8338 29.7496 11.5999 29.9838 10.8215 29.9838C9.41702 29.9838 8.01257 29.985 6.60812 29.9838C5.09475 29.9827 4.19361 29.0913 4.19246 27.5859C4.19017 24.1226 4.19132 20.6582 4.19132 17.1949C4.19132 17.0675 4.19132 16.9402 4.19132 16.7628C3.67998 16.7628 3.19616 16.7628 2.71349 16.7628C2.32024 16.7628 1.92814 16.7662 1.5349 16.7617C0.865347 16.7548 0.333376 16.4069 0.10637 15.835C-0.122928 15.2551 0.0203836 14.6616 0.51796 14.1955C1.83986 12.9561 3.16635 11.7202 4.49055 10.4832C8.09168 7.11878 11.6917 3.7544 15.2916 0.390021C15.8431 -0.12504 16.1469 -0.130725 16.6915 0.377514C21.5916 4.9528 26.4928 9.52922 31.3929 14.1045C31.9719 14.6446 32.137 15.2313 31.8871 15.8475C31.6429 16.449 31.1178 16.7617 30.3439 16.7628C29.5138 16.7651 28.6826 16.7639 27.8056 16.7639Z" fill="#11A9F7"/>
</svg>
