<svg width="29" height="29" viewBox="0 0 29 29" fill="none" xmlns="http://www.w3.org/2000/svg">
<path d="M21.4543 0H17.6843C13.0443 0 10.1443 2.9 10.1443 7.54V13.4125H19.2068C19.8013 13.4125 20.2943 13.9055 20.2943 14.5C20.2943 15.0945 19.8013 15.5875 19.2068 15.5875H10.1443V21.46C10.1443 26.1 13.0443 29 17.6843 29H21.4398C26.0798 29 28.9798 26.1 28.9798 21.46V7.54C28.9943 2.9 26.0943 0 21.4543 0Z" fill="#D6E9F2"/>
<path d="M3.70838 13.4122L6.70988 10.4108C6.92738 10.1933 7.02888 9.91779 7.02888 9.64229C7.02888 9.36679 6.92738 9.07679 6.70988 8.87379C6.28938 8.45329 5.59338 8.45329 5.17288 8.87379L0.315375 13.7312C-0.105125 14.1517 -0.105125 14.8477 0.315375 15.2682L5.17288 20.1257C5.59338 20.5462 6.28938 20.5462 6.70988 20.1257C7.13038 19.7052 7.13038 19.0092 6.70988 18.5887L3.70838 15.5872H10.1464V13.4122H3.70838Z" fill="#D6E9F2"/>
</svg>
