<svg width="29" height="28" viewBox="0 0 29 28" fill="none" xmlns="http://www.w3.org/2000/svg">
<path d="M20.2201 1.19786C20.3116 1.22282 20.4026 1.25027 20.4952 1.27323C21.6116 1.55023 22.3922 2.43815 22.4055 3.52221C22.4268 5.23515 22.4188 6.94859 22.4103 8.66203C22.4076 9.26595 21.8931 9.72663 21.2726 9.71815C20.657 9.71016 20.1728 9.25847 20.1563 8.66553C20.1467 8.31765 20.1547 7.96977 20.1547 7.60442C17.6899 7.60442 15.2481 7.60442 12.7881 7.60442C12.7881 8.65205 12.7881 9.70267 12.7881 10.7812C12.8866 10.7812 12.9813 10.7812 13.076 10.7812C14.5122 10.7812 15.9489 10.7783 17.385 10.7832C17.9549 10.7852 18.4216 11.1611 18.5099 11.6667C18.5998 12.1812 18.2864 12.6878 17.7591 12.8461C17.5936 12.8955 17.4111 12.9114 17.2361 12.9119C15.8616 12.9169 14.4872 12.9149 13.1133 12.9149C13.009 12.9149 12.9047 12.9149 12.7706 12.9149C12.7706 13.0267 12.7706 13.1156 12.7706 13.2044C12.7706 14.4766 12.7711 15.7494 12.7706 17.0216C12.7701 17.8187 12.33 18.2294 11.4728 18.2299C8.8037 18.2304 6.13517 18.2304 3.46611 18.2304C3.36235 18.2304 3.25858 18.2304 3.14418 18.2304C3.13673 18.3248 3.12715 18.3897 3.12662 18.4545C3.12556 19.2362 3.12396 20.0183 3.12715 20.7999C3.12875 21.2396 3.32297 21.4232 3.79123 21.4237C5.36946 21.4262 6.9477 21.4222 8.52594 21.4257C9.25334 21.4277 9.75139 21.8759 9.74501 22.5083C9.73915 23.0663 9.27569 23.5475 8.67919 23.5514C6.95036 23.5634 5.22047 23.5814 3.49271 23.5425C2.23693 23.5145 1.16792 22.5947 0.906658 21.4212C0.894419 21.3668 0.869942 21.3149 0.851318 21.2615C0.851318 15.2558 0.851318 9.24948 0.851318 3.24371C0.870474 3.1908 0.894419 3.13889 0.908254 3.08449C1.09236 2.36677 1.52444 1.82025 2.2215 1.47836C2.47479 1.35508 2.76159 1.2897 3.03297 1.19786C8.7622 1.19786 14.4909 1.19786 20.2201 1.19786ZM3.13939 10.7668C5.59189 10.7668 8.03161 10.7668 10.4772 10.7668C10.4772 9.70367 10.4772 8.65405 10.4772 7.60442C8.01937 7.60442 5.57965 7.60442 3.13939 7.60442C3.13939 8.66652 3.13939 9.71016 3.13939 10.7668ZM10.4735 16.0993C10.4735 15.0267 10.4735 13.9775 10.4735 12.9299C8.01831 12.9299 5.58603 12.9299 3.15003 12.9299C3.15003 13.994 3.15003 15.0421 3.15003 16.0993C5.59774 16.0993 8.0231 16.0993 10.4735 16.0993Z" fill="#D6E9F2"/>
<path d="M10.8017 26.7522C10.3904 26.5366 10.3185 26.3904 10.4255 25.9621C10.8171 24.3939 11.2077 22.8252 11.6089 21.2585C11.644 21.1208 11.7265 20.9745 11.8329 20.8747C14.254 18.5938 16.6815 16.3194 19.1079 14.0434C19.1324 14.0205 19.1606 14 19.1627 13.9985C20.7633 15.4998 22.3591 16.9962 23.9693 18.5065C23.9358 18.5399 23.8735 18.6068 23.8064 18.6697C21.4492 20.8812 19.0941 23.0943 16.7289 25.2983C16.5751 25.4416 16.3558 25.5589 16.1462 25.6073C14.5217 25.9821 12.8918 26.3365 11.2641 26.6983C11.2146 26.7093 11.1688 26.7338 11.1215 26.7522C11.0145 26.7522 10.9081 26.7522 10.8017 26.7522Z" fill="#D6E9F2"/>
<path d="M28.0953 14.0749C27.9569 14.7352 27.5233 15.2133 27.0215 15.663C26.4197 16.2026 25.8434 16.7676 25.2826 17.2961C23.6761 15.7893 22.0814 14.2935 20.4542 12.7672C20.4436 12.8241 20.4404 12.8026 20.4505 12.7937C21.2013 12.0874 21.9356 11.3637 22.7103 10.6814C23.5362 9.95422 24.9143 9.9662 25.7439 10.6939C26.3457 11.2215 26.9156 11.7815 27.4961 12.3305C27.8324 12.6479 27.9814 13.0547 28.0948 13.4764C28.0953 13.6756 28.0953 13.8752 28.0953 14.0749Z" fill="#D6E9F2"/>
</svg>
