<svg width="30" height="31" viewBox="0 0 30 31" fill="none" xmlns="http://www.w3.org/2000/svg">
<g clip-path="url(#clip0_106_71)">
<path d="M29.2847 5.62411C29.109 5.2504 28.7745 5.12664 28.3979 5.11071C28.0393 5.09601 27.6795 5.10704 27.3197 5.10704C26.6133 5.10704 25.9058 5.10704 25.1718 5.10704C25.1718 4.90976 25.173 4.78601 25.1718 4.66225C25.1669 3.81435 25.1609 2.96767 25.1561 2.11976C25.1525 1.50466 24.9973 0.975337 24.3776 0.713123C24.2644 0.713123 24.1501 0.713123 24.037 0.713123C23.8782 0.847906 23.7073 0.970436 23.5617 1.1187C22.4751 2.21901 21.3945 3.32546 20.3067 4.42455C20.1407 4.59241 20.0697 4.77743 20.0709 5.01636C20.0793 6.19142 20.0709 7.36648 20.0817 8.54154C20.0841 8.77312 20.0131 8.93976 19.8543 9.10028C18.3598 10.616 16.8701 12.1366 15.3803 13.6572C14.9255 14.1203 14.4658 14.5786 14.0254 15.0552C13.7799 15.3199 13.7149 15.8578 13.8894 16.1396C14.1024 16.4827 14.4141 16.7547 14.8244 16.6518C15.1072 16.5807 15.3924 16.3871 15.6042 16.1739C17.3803 14.3862 19.1527 12.5948 20.894 10.7728C21.3079 10.3403 21.7339 10.1687 22.3151 10.1957C23.297 10.2398 24.2825 10.2251 25.2656 10.2214C25.4257 10.2202 25.6386 10.2006 25.7385 10.1001C26.8696 8.96427 27.9875 7.81494 29.1006 6.65949C29.3786 6.36909 29.4664 6.00885 29.2847 5.62411Z" fill="#D6E9F2"/>
<path d="M27.8683 11.1404C27.269 11.6158 26.8707 12.2762 26.1499 12.3865C25.4725 12.4894 24.7806 12.4943 24.0766 12.5446C25.0393 15.5662 24.8287 18.4885 23.2078 21.2307C21.5845 23.9778 19.1827 25.6883 16.0649 26.1196C9.83414 26.981 5.09065 22.5246 4.52509 17.0831C4.20862 14.0407 5.04131 11.2727 7.13027 9.02798C10.1121 5.82383 13.7654 5.06905 17.9036 6.23308C17.9036 5.74051 17.9313 5.26878 17.8976 4.80071C17.8434 4.04715 18.1262 3.45166 18.6388 2.94316C18.7856 2.79858 18.9348 2.65644 19.1033 2.49348C19.0167 2.44569 18.9721 2.41138 18.9228 2.39423C17.8819 2.02787 16.8001 1.8502 15.716 1.69826C14.7256 1.56103 13.7413 1.66273 12.7522 1.79751C11.1999 2.00949 9.72102 2.44937 8.32998 3.16984C4.80546 4.99676 2.41687 7.83822 1.17745 11.6575C0.960856 12.3265 0.793594 13.0261 0.704549 13.727C0.704549 13.727 0.703346 13.7392 0.699736 13.7613C0.685296 13.8753 0.673263 13.988 0.662433 14.1019C0.660026 14.124 0.660026 14.1448 0.657619 14.1669C0.59264 14.8886 0.499985 16.3957 0.662433 17.9077C0.699736 18.3415 0.774341 18.7679 0.87181 19.193C0.876624 19.2126 0.880233 19.2323 0.885047 19.2519V19.2506C0.891063 19.2776 0.89708 19.3045 0.903097 19.3303C1.61907 22.2783 3.10998 24.7522 5.35057 26.7482C7.91243 29.0309 10.9376 30.1411 14.3093 30.3028C15.4945 30.3592 16.6678 30.1533 17.817 29.8691C20.7543 29.1425 23.2126 27.5986 25.1909 25.2754C26.8563 23.3186 27.8899 21.0543 28.3653 18.5093C28.6155 17.1701 28.6685 15.8259 28.5036 14.4867C28.3725 13.3888 28.0957 12.3057 27.8683 11.1404Z" fill="#D6E9F2"/>
<path d="M14.3104 11.3573C14.4392 11.3426 14.5872 11.2801 14.6787 11.1882C15.5222 10.3452 16.3561 9.49115 17.1912 8.63834C17.2538 8.57463 17.3043 8.49743 17.344 8.44842C15.3814 7.69731 13.4573 7.72795 11.5633 8.53664C9.67045 9.34289 8.26497 10.6895 7.40099 12.5911C5.87037 15.9619 6.74157 19.8731 9.59584 22.2158C12.4068 24.5231 16.1708 24.6995 19.2633 22.4217C22.1019 20.3313 23.209 16.4263 21.9094 12.9918C21.824 13.0543 21.7373 13.1021 21.6699 13.1695C20.9841 13.8606 20.315 14.57 19.6099 15.2402C19.2236 15.6078 18.93 15.9803 19.0347 16.555C19.0395 16.5819 19.0311 16.6126 19.0275 16.6408C18.6785 19.2102 16.1756 21.0102 13.6859 20.4833C10.6415 19.8388 9.10369 16.4398 10.6367 13.6939C11.4393 12.2554 12.7161 11.5386 14.3104 11.3573Z" fill="#D6E9F2"/>
</g>
<defs>
<clipPath id="clip0_106_71">
<rect width="29" height="31" fill="white" transform="translate(0.5)"/>
</clipPath>
</defs>
</svg>
