<svg width="32" height="32" viewBox="0 0 32 32" fill="none" xmlns="http://www.w3.org/2000/svg">
<path d="M29.0088 17.8073C28.8549 17.9143 28.7317 18.0396 28.9143 18.2195C29.2068 18.5088 29.0176 19.2399 29.6928 19.1647C30.3284 19.0941 30.7749 19.2968 30.8431 19.9197C30.9332 20.7396 31.0113 21.5812 30.7694 22.4068C30.6748 22.7291 30.4406 22.8988 30.1844 22.9284C29.9051 22.9603 29.6642 23.0753 29.4047 23.1459C28.8934 23.286 28.7053 23.8292 28.9791 24.3075C29.1122 24.5398 29.2431 24.7721 29.3772 25.0033C29.6488 25.4668 29.3024 25.846 29.0693 26.1717C28.7262 26.6511 28.2534 27.0189 27.874 27.479C27.5892 27.8252 27.0569 27.8047 26.7238 27.4847C26.6435 27.4073 26.5445 27.3731 26.4774 27.307C26.0112 26.8515 25.579 27.1658 25.1611 27.372C24.9808 27.4608 24.8323 27.6544 24.8807 27.9129C25.0479 28.7989 24.5167 29.1041 23.9163 29.112C23.5029 29.1166 23.0883 29.1052 22.6759 29.1154C21.4696 29.1462 21.3497 28.8638 21.1331 27.7478C21.0979 27.5656 21.1628 27.3754 20.9176 27.3355C20.5855 27.282 20.3106 26.8754 19.9158 27.1852C19.5859 27.4437 19.2978 27.8047 18.8051 27.7227C18.6853 27.7022 18.5489 27.7204 18.4675 27.6202C17.9507 26.9825 17.2194 26.5634 16.7829 25.846C16.7521 25.7947 16.6982 25.7332 16.707 25.6866C16.8213 25.0693 16.4244 25.1445 16.0538 25.1445C11.289 25.1479 6.52417 25.1468 1.75936 25.1468C1.09186 25.1468 1.02589 25.083 1.02259 24.3929C1.01819 23.5046 1.01819 22.6164 1.02259 21.727C1.02589 21.0733 1.12046 20.9754 1.74066 20.9708C2.41475 20.9663 3.08884 20.9594 3.76293 20.9742C4.02355 20.9799 4.10712 20.8934 4.10162 20.6224C4.08293 19.7819 4.08623 18.9415 4.08073 18.1011C4.09283 17.2424 4.10492 16.3826 4.11702 15.524C4.20169 15.4921 4.1874 15.4238 4.1753 15.3554C4.14781 14.9888 4.33035 14.8555 4.66465 14.8578C5.62905 14.8635 6.59454 14.8624 7.55894 14.8589C7.86245 14.8578 8.0219 14.9751 8.08458 15.311C8.18025 15.8315 8.07908 16.3542 8.15056 16.8712C8.14396 18.1352 8.14506 19.4004 8.12417 20.6645C8.11867 20.9765 8.21544 21.0779 8.51454 21.0608C8.78396 21.0448 8.9918 21.0437 8.9863 20.6656C8.9676 19.4016 8.9698 18.1364 8.9643 16.8723C8.9698 15.0673 8.9753 13.2624 8.9819 11.4574C8.9841 10.7126 9.04128 10.6545 9.77035 10.6534C10.627 10.6522 11.4836 10.65 12.3391 10.6545C12.8549 10.6579 13.0132 10.8253 13.0154 11.3651C13.0231 12.9173 13.0264 14.4683 13.0319 16.0205C13.0264 17.5693 13.0253 19.118 13.0121 20.6668C13.0099 20.923 13.0308 21.0915 13.3486 21.0608C13.6137 21.0357 13.8787 21.0858 13.8743 20.6668C13.8589 19.118 13.8556 17.5693 13.849 16.0205C13.8567 15.3076 13.8622 14.5947 13.871 13.8819C13.8787 13.284 14.0018 13.1564 14.566 13.1553C15.4545 13.1542 16.3419 13.153 17.2304 13.1564C17.7 13.1576 17.8869 13.3466 17.9001 13.8374C17.91 14.2007 17.9023 14.5651 17.9023 15.0081C18.3675 14.605 18.8458 14.3875 18.7974 13.6177C18.7128 12.2602 18.7699 10.8925 18.7776 9.52826C18.7809 8.89737 18.8238 8.85979 19.4352 8.85751C20.338 8.8541 21.242 8.85296 22.1448 8.85751C22.6759 8.85979 22.7859 8.97595 22.7892 9.53737C22.7947 10.5361 22.809 11.5359 22.7837 12.5335C22.7738 12.9207 22.9046 13.0369 23.2554 13.0061C23.5293 12.9822 23.8075 12.9868 24.0813 13.0118C24.6938 13.0665 24.9379 13.3945 25.0567 14.4171C25.0864 14.6699 25.1985 14.7394 25.3679 14.8487C25.8407 15.1527 26.2102 15.0172 26.6259 14.6813C27.1889 14.228 27.6233 14.3328 28.0961 14.8931C28.3369 15.1789 28.602 15.4454 28.8725 15.7028C29.6983 16.4851 29.6323 17.0306 29.0088 17.8073ZM18.3499 18.1956C18.1464 18.527 17.9859 18.88 17.888 19.2581C17.7813 19.6703 17.5427 19.8571 17.1348 19.9448C16.2737 20.1315 16.2792 20.1577 16.2781 21.1041C16.2781 22.0447 16.2792 22.0356 17.1611 22.1996C17.4031 22.2451 17.6802 22.2736 17.7923 22.5777C17.954 23.0138 18.1123 23.4522 18.2883 23.8838C18.373 24.0922 18.3521 24.2585 18.2465 24.4589C18.0618 24.8074 17.5647 25.0739 17.6725 25.4497C17.7737 25.7993 18.2278 26.0236 18.4565 26.3539C18.7754 26.8128 19.0679 26.7297 19.3945 26.4063C19.8157 25.9883 20.2501 25.8767 20.7702 26.2457C20.9736 26.3903 21.2354 26.4746 21.4828 26.5213C21.8578 26.593 21.982 26.872 22.0095 27.1829C22.0304 27.4198 22.1305 27.6407 22.1195 27.8742C22.1085 28.1008 22.2196 28.1395 22.3966 28.1384C22.8871 28.1349 23.3775 28.1384 23.8668 28.1372C24.0076 28.1372 24.0604 28.1372 24.0747 27.9152C24.122 27.1818 24.2077 26.4222 25.1743 26.3584C25.259 26.3527 25.3481 26.2958 25.4207 26.2411C25.833 25.9325 26.1871 25.9701 26.6083 26.2935C27.2648 26.798 27.2901 26.7627 27.8256 26.2081C28.5866 25.4189 28.5987 25.4098 27.9763 24.4669C27.775 24.1617 27.7827 23.9214 28.0071 23.6686C28.1984 23.4534 28.3809 23.294 28.3205 22.9113C28.2831 22.6733 28.3974 22.2474 28.8725 22.2611C29.1331 22.269 29.3948 22.1347 29.6609 22.0982C29.871 22.0698 29.9567 21.9695 29.9567 21.7611C29.9556 21.2532 29.9567 20.7453 29.9545 20.2386C29.9545 20.1475 29.96 20.0085 29.8402 20.0211C29.4993 20.0552 29.2068 19.8081 28.9099 19.8115C28.5613 19.8161 28.4755 19.6703 28.3633 19.3993C28.1819 18.9643 28.1181 18.4757 27.8234 18.092C27.7904 17.9371 27.8718 17.83 27.9455 17.7059C28.139 17.3768 28.5624 17.0614 28.4931 16.7357C28.4238 16.4077 28.006 16.1572 27.7376 15.877C27.2659 15.3839 27.2461 15.3611 26.7227 15.7814C26.2707 16.1435 25.8462 16.2688 25.3569 15.8873C25.2623 15.8132 25.1446 15.7495 25.0292 15.7301C24.4046 15.6265 24.1385 15.2541 24.1418 14.6038C24.144 14.1745 23.9746 13.8853 23.4622 13.9695C23.1488 14.0208 22.8211 13.9889 22.5011 13.9764C22.2547 13.9661 22.1415 14.0037 22.1151 14.3237C22.059 14.9979 21.8501 15.4727 21.0957 15.7984C20.2974 16.1435 19.7486 16.148 19.146 15.5604C19.0064 15.4238 18.8425 15.4124 18.6842 15.6071C18.4488 15.8964 18.1893 16.1685 17.9188 16.4236C17.6901 16.6389 17.6406 16.7983 17.8539 17.0898C18.0849 17.4087 18.4433 17.7036 18.3499 18.1956Z" fill="#D6E9F2"/>
<path d="M20.1202 3.88214C19.6562 3.88214 19.3252 3.89239 18.9953 3.87872C18.6973 3.86619 18.44 3.76484 18.4455 3.39018C18.451 3.01893 18.7083 2.91872 19.0063 2.9153C19.7409 2.90733 20.4754 2.91189 21.2111 2.91303C21.5872 2.91416 21.7752 3.1237 21.7796 3.50178C21.7873 4.19872 21.7807 4.8968 21.7851 5.59374C21.7873 5.85338 21.6532 6.08797 21.5245 6.25424C21.3453 6.48655 20.8823 6.24171 20.8603 5.9126C20.8361 5.54932 20.8526 5.18377 20.8471 4.81936C20.846 4.74762 20.8702 4.6531 20.7767 4.61552C20.6844 4.57794 20.6371 4.65765 20.5876 4.71117C20.2203 5.11772 19.8189 5.49808 19.5 5.94221C19.0811 6.52755 18.5378 6.98534 18.0958 7.55018C17.5229 8.28356 16.8356 8.92014 16.2132 9.61367C16.0504 9.79473 15.9229 9.80271 15.7117 9.70932C15.2224 9.49182 14.8188 9.15815 14.3921 8.83587C13.375 8.06719 12.316 7.35658 11.2658 6.63687C11.0899 6.51616 10.8699 6.54121 10.7325 6.73708C10.2519 7.42036 9.60973 7.93964 9.05001 8.5432C8.18128 9.48043 7.27296 10.3801 6.41853 11.331C6.1964 11.5769 6.01275 11.6077 5.81152 11.4346C5.563 11.2216 5.57509 10.9244 5.78623 10.683C6.23818 10.166 6.70224 9.65922 7.17509 9.16157C8.27695 8.00228 9.3953 6.86007 10.4884 5.69053C10.7556 5.4047 10.9843 5.39217 11.2823 5.58918C12.3523 6.29979 13.4057 7.03545 14.4372 7.80299C14.8012 8.07402 15.2202 8.26306 15.5523 8.58306C15.6963 8.72199 15.8206 8.68555 15.9449 8.54662C16.8895 7.4921 17.8352 6.43986 18.7809 5.38534C19.1943 4.92299 19.6045 4.4595 20.1202 3.88214Z" fill="#D6E9F2"/>
<path d="M20.4512 18.2867C21.6048 17.1115 22.9804 17.0215 24.4463 17.4315C25.0016 17.5863 25.4261 17.9838 25.856 18.3584C26.9557 19.7261 27.1635 21.2464 26.4279 22.835C25.7989 24.1936 24.6629 24.8518 23.2224 24.9509C21.4409 25.0727 19.7233 23.7244 19.3912 21.7372C19.2064 20.6315 19.411 19.5496 20.1642 18.6545C20.2643 18.5361 20.3556 18.4097 20.4512 18.2867Z" fill="#D6E9F2"/>
</svg>
