<svg width="30" height="30" viewBox="0 0 30 30" fill="none" xmlns="http://www.w3.org/2000/svg">
<g clip-path="url(#clip0_106_23)">
<path d="M14.9856 0.400344C7.29898 0.374721 0.942283 6.89679 0.897954 14.8238C0.852593 22.8875 7.02476 29.4672 14.8155 29.5452C22.6846 29.6242 29.032 23.1181 29.0567 15.032C29.0825 6.96298 22.7959 0.425967 14.9856 0.400344ZM23.834 23.385C22.867 19.0623 19.2526 16.1124 15.1144 16.0345C11.0918 15.9587 7.10105 18.8178 6.12166 23.3541C3.85465 21.0982 2.08764 16.4925 3.30826 11.7651C4.67218 6.47935 9.04847 2.86974 14.0742 2.4918C19.6402 2.0733 24.367 5.51102 26.2144 10.3879C28.0969 15.3566 26.5608 20.5078 23.834 23.385Z" fill="#D6E9F2"/>
<path d="M15.0176 4.56511C12.2228 4.5587 9.95372 6.8797 9.95166 9.74625C9.9496 12.6352 12.1898 14.968 14.9723 14.9744C17.7486 14.9808 20.0011 12.647 20.0063 9.76013C20.0115 6.92133 17.7558 4.57151 15.0176 4.56511Z" fill="#D6E9F2"/>
</g>
<defs>
<clipPath id="clip0_106_23">
<rect width="30" height="30" fill="white"/>
</clipPath>
</defs>
</svg>
